<svg width="25" height="24" viewBox="0 0 25 24" fill="none" xmlns="http://www.w3.org/2000/svg">
<path d="M20.8498 6.17181C20.8498 6.00775 20.8178 5.84489 20.7551 5.6933C20.6922 5.54161 20.5997 5.40313 20.4836 5.28705L19.3127 4.11615C19.1966 4.00002 19.0581 3.90752 18.9064 3.84467C18.7549 3.78194 18.5919 3.74994 18.4279 3.74994C18.2638 3.74999 18.101 3.78186 17.9494 3.84467C17.8355 3.89186 17.7298 3.95618 17.6349 4.03412L17.5441 4.11615L15.6603 5.99994L18.5998 8.93939L20.4836 7.0556L20.5656 6.96478C20.6435 6.86989 20.7079 6.76418 20.7551 6.65033C20.8179 6.49873 20.8497 6.33591 20.8498 6.17181ZM6.34881 16.1718C6.34881 16.4448 6.40254 16.7156 6.50701 16.9677C6.61148 17.2198 6.76519 17.4486 6.95818 17.6415L7.10955 17.7792C7.2671 17.9085 7.44306 18.0144 7.63201 18.0927C7.88417 18.1972 8.15497 18.2509 8.42791 18.2509C8.70066 18.2509 8.97082 18.1971 9.22283 18.0927C9.47499 17.9882 9.70467 17.8346 9.89763 17.6415L17.5392 9.99994L14.5998 7.06049L6.95818 14.7021C6.76516 14.8951 6.61148 15.1247 6.50701 15.3769C6.40266 15.6289 6.34883 15.8991 6.34881 16.1718ZM22.3498 6.17181C22.3497 6.53294 22.279 6.89092 22.1408 7.22455C22.0026 7.55809 21.7994 7.86087 21.5441 8.11615L19.6603 9.99994L22.1301 12.4697C22.4229 12.7625 22.4229 13.2373 22.1301 13.5302L18.1301 17.5302C17.8372 17.8231 17.3624 17.8231 17.0695 17.5302C16.7766 17.2373 16.7766 16.7625 17.0695 16.4697L20.5392 12.9999L18.5998 11.0605L10.9582 18.7021C10.6259 19.0345 10.2312 19.2986 9.79705 19.4785C9.363 19.6582 8.89772 19.7509 8.42791 19.7509C7.95813 19.7509 7.49279 19.6582 7.05877 19.4785C6.85787 19.3952 6.66525 19.2933 6.48357 19.1757L5.13006 20.5302C4.83716 20.8231 4.3624 20.8231 4.06951 20.5302C3.77664 20.2373 3.77663 19.7626 4.06951 19.4697L5.42303 18.1152C5.30579 17.9339 5.2043 17.7423 5.12127 17.5419C4.94139 17.1078 4.84881 16.6418 4.84881 16.1718C4.84883 15.702 4.94148 15.2367 5.12127 14.8027C5.30115 14.3685 5.56527 13.9738 5.89763 13.6415L16.4836 3.0556C16.7388 2.80028 17.0416 2.59715 17.3752 2.45892C17.7088 2.3207 18.0668 2.24999 18.4279 2.24994C18.789 2.24994 19.147 2.32076 19.4806 2.45892C19.8143 2.59718 20.1179 2.80017 20.3732 3.0556L21.5441 4.2265C21.7996 4.48187 22.0025 4.78537 22.1408 5.11908C22.279 5.45271 22.3498 5.8107 22.3498 6.17181Z" fill="#3D3D3A"/>
</svg>
