<svg width="25" height="24" viewBox="0 0 25 24" fill="none" xmlns="http://www.w3.org/2000/svg">
<path d="M15.5999 16.25C16.0141 16.25 16.3499 16.5858 16.3499 17C16.3499 17.4142 16.0141 17.75 15.5999 17.75H9.59985C9.18564 17.75 8.84985 17.4142 8.84985 17C8.84985 16.5858 9.18564 16.25 9.59985 16.25H15.5999ZM15.5999 12.25C16.0141 12.25 16.3499 12.5858 16.3499 13C16.3499 13.4142 16.0141 13.75 15.5999 13.75H9.59985C9.18564 13.75 8.84985 13.4142 8.84985 13C8.84985 12.5858 9.18564 12.25 9.59985 12.25H15.5999ZM10.5999 8.25C11.0141 8.25 11.3499 8.58579 11.3499 9C11.3499 9.41421 11.0141 9.75 10.5999 9.75H9.59985C9.18564 9.75 8.84985 9.41421 8.84985 9C8.84985 8.58579 9.18564 8.25 9.59985 8.25H10.5999ZM20.3499 19C20.3499 19.7293 20.0599 20.4286 19.5442 20.9443C19.0285 21.4601 18.3292 21.75 17.5999 21.75H7.59985C6.87051 21.75 6.17124 21.4601 5.65552 20.9443C5.13979 20.4286 4.84985 19.7293 4.84985 19V5C4.84985 4.27065 5.13979 3.57139 5.65552 3.05566C6.17124 2.53994 6.87051 2.25 7.59985 2.25H14.5999C14.7988 2.25 14.9895 2.32907 15.1301 2.46973L20.1301 7.46973C20.2708 7.61038 20.3499 7.80109 20.3499 8V19ZM15.3499 7C15.3499 7.0663 15.3762 7.12987 15.4231 7.17676C15.47 7.22364 15.5336 7.25 15.5999 7.25H17.7893L15.3499 4.81055V7ZM6.34985 19L6.35571 19.124C6.38421 19.41 6.51105 19.6788 6.71606 19.8838C6.95049 20.1182 7.26833 20.25 7.59985 20.25H17.5999C17.9314 20.25 18.2492 20.1182 18.4836 19.8838C18.7181 19.6494 18.8499 19.3315 18.8499 19V8.75H15.5999C15.1357 8.75 14.6907 8.56549 14.3625 8.2373C14.0344 7.90912 13.8499 7.46413 13.8499 7V3.75H7.59985C7.26833 3.75 6.95048 3.88179 6.71606 4.11621C6.48164 4.35063 6.34985 4.66848 6.34985 5V19Z" fill="#3D3D3A"/>
</svg>
