<svg width="63" height="32" viewBox="0 0 63 32" fill="none" xmlns="http://www.w3.org/2000/svg">
<path d="M5.64429 0H62.1997V20.5375H22.331L17.2879 25.5806L15.913 26.9554V20.5375H5.64429V0Z" fill="#FFBA49"/>
<path d="M62.1997 0V20.5375H22.331L15.913 26.9554V20.5375H5.64429V0H62.1997ZM16.6833 25.0961L22.0123 19.7672H61.4294V0.770312H6.4146V19.7672H16.6833V25.0961Z" fill="#121212"/>
<path d="M5.64437 20.5375H15.9131V26.9555L10.8686 32V25.5821H5.73422H0.599854V5.04458L5.64437 6.10352e-05V20.5375Z" fill="#121212"/>
<path d="M62.1967 20.5375L57.1598 25.582H17.28L22.331 20.5375H62.1967Z" fill="#121212"/>
<path d="M17.1138 8.24069C17.0176 7.28441 16.7865 6.04574 15.0216 6.04574C13.7251 6.04574 13.1026 6.69396 13.1026 7.57322C13.1026 10.2367 19.2574 7.55396 19.2574 12.3803C19.2574 14.6201 17.5182 15.9551 15.0216 15.9551C11.9024 15.9551 10.5868 14.0233 10.8499 12.1685H12.8972C12.9807 13.42 13.1411 14.4918 15.0922 14.4918C16.6838 14.4918 17.2358 13.7152 17.2358 12.868C17.2358 10.057 11.0681 12.6562 11.0681 7.83635C11.0681 5.98798 12.6084 4.58887 14.9831 4.58887C17.9867 4.58887 19.2382 6.14843 19.0777 8.24069H17.1267H17.1138Z" fill="#121212"/>
<path d="M29.6159 11.2186C29.5004 14.0939 27.6328 15.9615 24.8602 15.9615C22.2609 15.9615 19.9697 14.0425 19.9697 10.2752C19.9697 6.50784 22.1326 4.58887 24.8602 4.58887C27.5878 4.58887 29.372 6.29604 29.6159 9.44726H27.4402C27.2605 7.3871 26.208 6.52709 24.7768 6.52709C23.0889 6.52709 21.985 7.7465 21.985 10.2752C21.985 12.8039 23.1081 14.0233 24.7768 14.0233C26.2208 14.0233 26.9396 13.3109 27.5878 11.2122H29.6159V11.2186Z" fill="#121212"/>
<path d="M30.2065 10.2752C30.2065 6.78381 32.3694 4.58887 35.1099 4.58887C37.8503 4.58887 40.0453 6.78381 40.0453 10.2752C40.0453 13.7666 37.8503 15.9615 35.1099 15.9615C32.3694 15.9615 30.2065 13.7666 30.2065 10.2752ZM38.0172 10.2752C38.0172 7.91979 36.817 6.52709 35.1099 6.52709C33.4027 6.52709 32.2218 7.92621 32.2218 10.2752C32.2218 12.6242 33.4091 14.0233 35.1099 14.0233C36.8106 14.0233 38.0172 12.6242 38.0172 10.2752Z" fill="#121212"/>
<path d="M48.6581 12.5792C48.6581 14.5752 47.0665 15.9551 44.7624 15.9551C42.2915 15.9551 40.9309 14.3442 40.9309 12.4124V4.74931H42.8499V12.3033C42.8499 13.3109 43.4853 14.0104 44.7817 14.0104C45.9177 14.0104 46.7327 13.5098 46.7327 12.5022V4.75573H48.6646V12.5856L48.6581 12.5792Z" fill="#121212"/>
<path d="M49.7812 4.75577H53.4844C55.8847 4.75577 57.0271 5.97518 57.0271 7.99042C57.0271 10.0057 55.8719 11.2379 53.5037 11.2379H51.7195V14.8576C51.7195 15.2491 51.7387 15.57 51.8157 15.8011H49.7877V4.75577H49.7812ZM51.7131 6.58489V9.39595H53.4331C54.537 9.39595 55.0055 8.8761 55.0055 7.984C55.0055 7.0919 54.4343 6.58489 53.478 6.58489H51.7066H51.7131Z" fill="#121212"/>
</svg>
