<svg width="19" height="22" viewBox="0 0 19 22" fill="none" xmlns="http://www.w3.org/2000/svg">
<path d="M1.59985 19V17C1.59985 15.9391 2.02128 14.9217 2.77143 14.1716C3.52157 13.4214 4.53899 13 5.59985 13H8.09985M14.6008 19C14.0704 19 13.5617 18.7893 13.1866 18.4142C12.8115 18.0391 12.6008 17.5304 12.6008 17C12.6008 16.4696 12.8115 15.9609 13.1866 15.5858C13.5617 15.2107 14.0704 15 14.6008 15M14.6008 19C15.1313 19 15.64 18.7893 16.015 18.4142C16.3901 18.0391 16.6008 17.5304 16.6008 17C16.6008 16.4696 16.3901 15.9609 16.015 15.5858C15.64 15.2107 15.1313 15 14.6008 15M14.6008 19V20.5M14.6008 15V13.5M17.6318 15.25L16.3328 16M12.8698 18L11.5698 18.75M11.5698 15.25L12.8698 16M16.3328 18L17.6328 18.75M3.59985 5C3.59985 6.06087 4.02128 7.07828 4.77143 7.82843C5.52157 8.57857 6.53899 9 7.59985 9C8.66072 9 9.67814 8.57857 10.4283 7.82843C11.1784 7.07828 11.5999 6.06087 11.5999 5C11.5999 3.93913 11.1784 2.92172 10.4283 2.17157C9.67814 1.42143 8.66072 1 7.59985 1C6.53899 1 5.52157 1.42143 4.77143 2.17157C4.02128 2.92172 3.59985 3.93913 3.59985 5Z" stroke="#121212" stroke-width="1.5" stroke-linecap="round" stroke-linejoin="round"/>
</svg>
