<svg width="27" height="28" viewBox="0 0 27 28" fill="none" xmlns="http://www.w3.org/2000/svg">
<path d="M0.266602 14C0.266602 6.63616 6.23614 0.666626 13.5999 0.666626C20.9637 0.666626 26.9333 6.63616 26.9333 14C26.9333 21.3638 20.9637 27.3333 13.5999 27.3333C6.23614 27.3333 0.266602 21.3638 0.266602 14Z" fill="#121212"/>
<path d="M7.01042 19.6667V8.65875H11.9384L12.9464 12.5307C12.9891 12.6694 13.0477 12.8987 13.1224 13.2187C13.2077 13.5387 13.2931 13.8854 13.3784 14.2587C13.4744 14.6321 13.5597 14.9787 13.6344 15.2987H13.7624C13.8157 15.0641 13.8797 14.7867 13.9544 14.4667C14.0397 14.1361 14.1251 13.8001 14.2104 13.4587C14.2957 13.1174 14.3704 12.8081 14.4344 12.5307L15.4424 8.65875H20.1944V19.6667H16.8184V15.6987C16.8184 15.2721 16.8184 14.8347 16.8184 14.3867C16.8291 13.9281 16.8344 13.4961 16.8344 13.0907C16.8451 12.6854 16.8504 12.3494 16.8504 12.0827H16.7224C16.6904 12.2961 16.6424 12.5467 16.5784 12.8347C16.5251 13.1227 16.4664 13.4107 16.4024 13.6987C16.3384 13.9761 16.2744 14.2214 16.2104 14.4347L14.7864 19.6667H12.1464L10.7064 14.4347C10.6531 14.2214 10.5891 13.9761 10.5144 13.6987C10.4504 13.4107 10.3917 13.1227 10.3384 12.8347C10.2851 12.5467 10.2371 12.3014 10.1944 12.0987H10.0664C10.0771 12.3654 10.0877 12.7014 10.0984 13.1067C10.1091 13.5121 10.1144 13.9387 10.1144 14.3867C10.1251 14.8347 10.1304 15.2721 10.1304 15.6987V19.6667H7.01042Z" fill="#FFBA49"/>
</svg>
