<svg width="31" height="32" viewBox="0 0 31 32" fill="none" xmlns="http://www.w3.org/2000/svg">
<path d="M11.4068 20.5374H5.74805V0H30.1998V20.5354H18.2546L11.4068 26.9553V20.5374Z" fill="#FFBA49"/>
<path d="M30.1996 0V20.5352H18.2543L11.4066 26.9555V20.5375H5.74805V0H30.1996ZM12.477 24.4852L17.8316 19.4656H29.1301V1.07031H6.81836V19.4672H12.477V24.4852Z" fill="#121212"/>
<path d="M5.74815 20.5374H11.4069V26.9553L6.25857 32V25.5821H0.599854V5.04471L5.74815 0V20.5374Z" fill="#121212"/>
<path d="M12.863 25.5795H25.0516L30.1999 20.5348H18.2548L12.863 25.5795Z" fill="#121212"/>
<path d="M19.6966 8.45182C19.6003 7.49555 19.3693 6.25688 17.6043 6.25688C16.3079 6.25688 15.6854 6.90509 15.6854 7.78435C15.6854 10.4478 21.8402 7.7651 21.8402 12.5914C21.8402 14.8313 20.1009 16.1662 17.6043 16.1662C14.4852 16.1662 13.1695 14.2344 13.4327 12.3796H15.48C15.5634 13.6311 15.7239 14.7029 17.6749 14.7029C19.2666 14.7029 19.8185 13.9263 19.8185 13.0792C19.8185 10.2681 13.6509 12.8674 13.6509 8.04749C13.6509 6.19912 15.1912 4.8 17.5658 4.8C20.5694 4.8 21.8209 6.35957 21.6605 8.45182H19.7094H19.6966Z" fill="#121212"/>
</svg>
