<svg width="25" height="24" viewBox="0 0 25 24" fill="none" xmlns="http://www.w3.org/2000/svg">
<path d="M5.93311 12.8333H8.43311L10.9331 15.3333H14.2664L16.7664 12.8333H19.2664M5.93311 7.00001C5.93311 6.55798 6.1087 6.13406 6.42126 5.8215C6.73382 5.50894 7.15774 5.33334 7.59977 5.33334H17.5998C18.0418 5.33334 18.4657 5.50894 18.7783 5.8215C19.0908 6.13406 19.2664 6.55798 19.2664 7.00001V17C19.2664 17.442 19.0908 17.866 18.7783 18.1785C18.4657 18.4911 18.0418 18.6667 17.5998 18.6667H7.59977C7.15774 18.6667 6.73382 18.4911 6.42126 18.1785C6.1087 17.866 5.93311 17.442 5.93311 17V7.00001Z" stroke="#3D3D3A" stroke-width="1.5" stroke-linecap="round" stroke-linejoin="round"/>
</svg>
