<svg width="25" height="24" viewBox="0 0 25 24" fill="none" xmlns="http://www.w3.org/2000/svg">
<path d="M14.8499 21V19C14.8499 18.138 14.5072 17.3116 13.8977 16.7021C13.3263 16.1307 12.5643 15.7937 11.761 15.7539L11.5999 15.75H7.59985C6.7379 15.75 5.9115 16.0927 5.302 16.7021C4.69251 17.3116 4.34985 18.138 4.34985 19V21C4.34985 21.4142 4.01407 21.75 3.59985 21.75C3.18564 21.75 2.84985 21.4142 2.84985 21V19C2.84985 17.7402 3.35066 16.5324 4.24146 15.6416C5.13225 14.7508 6.34008 14.25 7.59985 14.25H11.5999C12.8596 14.25 14.0675 14.7508 14.9583 15.6416C15.849 16.5324 16.3499 17.7402 16.3499 19V21C16.3499 21.4142 16.0141 21.75 15.5999 21.75C15.1856 21.75 14.8499 21.4142 14.8499 21ZM20.8499 21V19.0039C20.8456 18.2867 20.6041 17.5911 20.1633 17.0254C19.7224 16.4596 19.1069 16.0553 18.4124 15.876C18.0115 15.7724 17.77 15.3638 17.8733 14.9629C17.9768 14.5618 18.3863 14.3203 18.7874 14.4238C19.8025 14.6859 20.7025 15.2765 21.3469 16.1035C21.9912 16.9305 22.3438 17.9478 22.3499 18.9961V21C22.3498 21.4142 22.0141 21.75 21.5999 21.75C21.1856 21.75 20.8499 21.4142 20.8499 21ZM12.8459 6.83887C12.8061 6.03558 12.4691 5.27356 11.8977 4.70215C11.2882 4.09266 10.4618 3.75 9.59985 3.75C8.7379 3.75 7.9115 4.09266 7.302 4.70215C6.69251 5.31164 6.34985 6.13805 6.34985 7L6.35376 7.16113C6.3936 7.96442 6.7306 8.72644 7.302 9.29785C7.9115 9.90734 8.7379 10.25 9.59985 10.25L9.76099 10.2461C10.5643 10.2063 11.3263 9.86926 11.8977 9.29785C12.5072 8.68836 12.8499 7.86195 12.8499 7L12.8459 6.83887ZM18.8577 7.00488C18.8576 6.28329 18.6175 5.58174 18.175 5.01172C17.7879 4.5131 17.2649 4.14007 16.6721 3.93457L16.3401 3.83398C15.9835 3.70291 15.7772 3.32031 15.8733 2.94434C15.9696 2.56831 16.3345 2.33138 16.7102 2.3877L16.7854 2.40332L16.9758 2.45605C17.9197 2.73992 18.7533 3.3116 19.3596 4.09277C20.0063 4.92589 20.3576 5.95024 20.3577 7.00488C20.3577 8.05959 20.0063 9.08481 19.3596 9.91797C18.7129 10.7509 17.807 11.3449 16.7854 11.6064C16.3844 11.7089 15.9761 11.4673 15.8733 11.0664C15.7705 10.6651 16.013 10.2561 16.4143 10.1533C17.1131 9.97428 17.7327 9.5679 18.175 8.99805C18.6175 8.42799 18.8577 7.72652 18.8577 7.00488ZM14.344 7.23535C14.2858 8.40944 13.7934 9.52323 12.9583 10.3584C12.1231 11.1936 11.0093 11.6859 9.83521 11.7441L9.59985 11.75C8.34008 11.75 7.13225 11.2492 6.24146 10.3584C5.40629 9.52323 4.91391 8.40944 4.85571 7.23535L4.84985 7C4.84985 5.74022 5.35066 4.5324 6.24146 3.6416C7.13225 2.7508 8.34008 2.25 9.59985 2.25C10.8596 2.25 12.0675 2.7508 12.9583 3.6416C13.849 4.5324 14.3499 5.74022 14.3499 7L14.344 7.23535Z" fill="#3D3D3A"/>
</svg>
