<svg width="25" height="24" viewBox="0 0 25 24" fill="none" xmlns="http://www.w3.org/2000/svg">
<path d="M7.59985 14C6.55908 14.5876 5.7175 15.4726 5.183 16.5416C4.6485 17.6106 4.44544 18.8148 4.59985 20C5.785 20.1544 6.98927 19.9513 8.05827 19.4168C9.12726 18.8823 10.0123 18.0408 10.5998 17M4.59985 13C6.38295 13.2119 8.0429 14.0175 9.31261 15.2872C10.5823 16.557 11.3879 18.2169 11.5999 20C12.4838 19.4904 13.2231 18.7638 13.7481 17.8889C14.273 17.014 14.5662 16.0197 14.5999 15C16.279 14.4093 17.7452 13.334 18.8132 11.91C19.8812 10.486 20.5029 8.77734 20.5999 7C20.5999 6.20435 20.2838 5.44129 19.7212 4.87868C19.1586 4.31607 18.3955 4 17.5999 4C15.8225 4.09691 14.1138 4.71867 12.6898 5.78665C11.2659 6.85464 10.1905 8.32089 9.59985 10C8.58012 10.0337 7.58581 10.3268 6.71092 10.8518C5.83602 11.3767 5.10944 12.1161 4.59985 13ZM14.5999 9C14.5999 9.26522 14.7052 9.51957 14.8927 9.70711C15.0803 9.89464 15.3346 10 15.5999 10C15.8651 10 16.1194 9.89464 16.307 9.70711C16.4945 9.51957 16.5999 9.26522 16.5999 9C16.5999 8.73478 16.4945 8.48043 16.307 8.29289C16.1194 8.10536 15.8651 8 15.5999 8C15.3346 8 15.0803 8.10536 14.8927 8.29289C14.7052 8.48043 14.5999 8.73478 14.5999 9Z" stroke="#3D3D3A" stroke-width="1.5" stroke-linecap="round" stroke-linejoin="round"/>
</svg>
