<svg width="25" height="24" viewBox="0 0 25 24" fill="none" xmlns="http://www.w3.org/2000/svg">
<path d="M15.0998 5.33331V18.6666M10.9331 10.3333L9.26644 12L10.9331 13.6666M5.93311 6.99998C5.93311 6.55795 6.1087 6.13403 6.42126 5.82147C6.73382 5.50891 7.15774 5.33331 7.59977 5.33331H17.5998C18.0418 5.33331 18.4657 5.50891 18.7783 5.82147C19.0908 6.13403 19.2664 6.55795 19.2664 6.99998V17C19.2664 17.442 19.0908 17.8659 18.7783 18.1785C18.4657 18.4911 18.0418 18.6666 17.5998 18.6666H7.59977C7.15774 18.6666 6.73382 18.4911 6.42126 18.1785C6.1087 17.8659 5.93311 17.442 5.93311 17V6.99998Z" stroke="#3D3D3A" stroke-width="1.5" stroke-linecap="round" stroke-linejoin="round"/>
</svg>
