<svg width="25" height="24" viewBox="0 0 25 24" fill="none" xmlns="http://www.w3.org/2000/svg">
<path d="M18.5999 8.00001C19.3955 8.00001 20.1586 8.31608 20.7212 8.87869C21.2838 9.4413 21.5999 10.2044 21.5999 11C21.5999 11.7957 21.2838 12.5587 20.7212 13.1213C20.1586 13.6839 19.3955 14 18.5999 14M10.5999 8.00001V19C10.5999 19.2652 10.4945 19.5196 10.307 19.7071C10.1194 19.8947 9.86507 20 9.59985 20H8.59985C8.33464 20 8.08028 19.8947 7.89275 19.7071C7.70521 19.5196 7.59985 19.2652 7.59985 19V14M12.5999 8.00001L17.1239 4.23001C17.2553 4.12052 17.4152 4.05076 17.5849 4.02891C17.7546 4.00707 17.927 4.03404 18.0819 4.10666C18.2368 4.17928 18.3678 4.29455 18.4595 4.43896C18.5513 4.58337 18.5999 4.75093 18.5999 4.92201V17.078C18.5999 17.2491 18.5513 17.4167 18.4595 17.5611C18.3678 17.7055 18.2368 17.8207 18.0819 17.8934C17.927 17.966 17.7546 17.9929 17.5849 17.9711C17.4152 17.9493 17.2553 17.8795 17.1239 17.77L12.5999 14H4.59985C4.33464 14 4.08028 13.8947 3.89275 13.7071C3.70521 13.5196 3.59985 13.2652 3.59985 13V9.00001C3.59985 8.73479 3.70521 8.48044 3.89275 8.2929C4.08028 8.10537 4.33464 8.00001 4.59985 8.00001H12.5999Z" stroke="#3D3D3A" stroke-width="1.2" stroke-linecap="round" stroke-linejoin="round"/>
</svg>
